<?xml version="1.0" encoding="utf-8"?>
<!-- Generator: Adobe Illustrator 21.1.0, SVG Export Plug-In . SVG Version: 6.00 Build 0)  -->
<svg version="1.1" id="Layer_1" xmlns="http://www.w3.org/2000/svg" xmlns:xlink="http://www.w3.org/1999/xlink" x="0px" y="0px"
	 viewBox="0 0 511.5 511.5" style="enable-background:new 0 0 511.5 511.5;" xml:space="preserve">
<style type="text/css">
	.st0{fill:#379721;}
</style>
<g transform="translate(1 1)">
	<g>
		<g>
			<path class="st0" d="M499.6,273l-8.7-21.6l0,0l-6.8-17.1l-6.8-17.1c-0.1-0.5-0.3-1-0.6-1.5l-9.6-24.1c-0.9-3.4-4.3-5.1-7.7-5.1
				h-8.5v-34.1c0-5.1-3.4-8.5-8.5-8.5h-51.2c-5.1,0-8.5,3.4-8.5,8.5v34.1H374c-5.1,0-8.5,3.4-8.5,8.5v76.8h-25.6v-59.7
				c0-5.1-3.4-8.5-8.5-8.5h-17.1v-59.7c0-5.1-3.4-8.5-8.5-8.5h-34.1V75.6c0-5.1-3.4-8.5-8.5-8.5H160.7c-5.1,0-8.5,3.4-8.5,8.5v59.7
				h-51.2c-5.1,0-8.5,3.4-8.5,8.5v59.7H24.1c-5.1,0-8.5,3.4-8.5,8.5v61.2c-5,1.8-9.5,5.2-12.8,9.6c-4.3,6.8-5.1,16.2-1.7,23.9
				l40.1,94.7V422c0,11.1,9.4,20.5,20.5,20.5h344.7c8.5,0,17.1-3.4,23-8.5l75.1-67.4c4.3-3.4,6-7.7,6-12.8v-64.9
				C510.5,281.7,506,275.5,499.6,273z M470.4,246.2h-28.2v-17.1h21.3L470.4,246.2z M399.6,160.9h34.1v25.6h-34.1V160.9z
				 M382.5,203.6h8.5h51.2h11.1l3.4,8.5h-23c-5.1,0-8.5,3.4-8.5,8.5v34.1c0,5.1,3.4,8.5,8.5,8.5h43.5l3.4,8.5h-98.1L382.5,203.6
				L382.5,203.6z M322.8,271.8h-85.3v-51.2h17.1v17.1c0,5.1,3.4,8.5,8.5,8.5s8.5-3.4,8.5-8.5v-17.1h17.1v17.1c0,5.1,3.4,8.5,8.5,8.5
				s8.5-3.4,8.5-8.5v-17.1h17.1L322.8,271.8L322.8,271.8z M135.1,271.8v-51.2h17.1v17.1c0,5.1,3.4,8.5,8.5,8.5s8.5-3.4,8.5-8.5
				v-17.1h17.1v17.1c0,5.1,3.4,8.5,8.5,8.5s8.5-3.4,8.5-8.5v-17.1h17.1v51.2H135.1z M297.2,203.6h-68.3h-17.1v-51.2h17.1v17.1
				c0,5.1,3.4,8.5,8.5,8.5s8.5-3.4,8.5-8.5v-17.1h17.1v17.1c0,5.1,3.4,8.5,8.5,8.5s8.5-3.4,8.5-8.5v-17.1h17.1L297.2,203.6
				L297.2,203.6z M169.2,84.1h17.1v17.1c0,5.1,3.4,8.5,8.5,8.5s8.5-3.4,8.5-8.5V84.1h17.1v17.1c0,5.1,3.4,8.5,8.5,8.5
				s8.5-3.4,8.5-8.5V84.1h17.1v51.2h-51.2h-34.1L169.2,84.1L169.2,84.1z M109.5,152.4h17.1v17.1c0,5.1,3.4,8.5,8.5,8.5
				s8.5-3.4,8.5-8.5v-17.1h17.1v17.1c0,5.1,3.4,8.5,8.5,8.5s8.5-3.4,8.5-8.5v-17.1h17.1v51.2h-68.3h-17.1V152.4z M32.7,220.6h17.1
				v17.1c0,5.1,3.4,8.5,8.5,8.5s8.5-3.4,8.5-8.5v-17.1h17.1v17.1c0,5.1,3.4,8.5,8.5,8.5c5.1,0,8.5-3.4,8.5-8.5v-17.1H118v51.2H32.7
				V220.6z M407.3,425.4H61.7c-1.7,0-3.4-1.7-3.4-3.4v-13.7h374.4l-14.3,12.8C415.8,423.7,411.6,425.4,407.3,425.4z M493.5,353.8
				l-41.8,37.5H55.3L16.5,300c-0.9-2.6-0.9-5.1,0.9-7.7c1.7-1.7,4.3-3.4,6.8-3.4h102.4h102.4h102.4H374h119.5V353.8z"/>
			<path class="st0" d="M254.5,306c-18.8,0-34.1,15.4-34.1,34.1s15.4,34.1,34.1,34.1s34.1-15.4,34.1-34.1
				C288.7,321.3,273.3,306,254.5,306z M254.5,357.2c-9.4,0-17.1-7.7-17.1-17.1s7.7-17.1,17.1-17.1s17.1,7.7,17.1,17.1
				S263.9,357.2,254.5,357.2z"/>
			<path class="st0" d="M399.6,374.2c18.8,0,34.1-15.4,34.1-34.1S418.4,306,399.6,306s-34.1,15.4-34.1,34.1S380.8,374.2,399.6,374.2
				z M399.6,323c9.4,0,17.1,7.7,17.1,17.1s-7.7,17.1-17.1,17.1s-17.1-7.7-17.1-17.1S390.2,323,399.6,323z"/>
			<path class="st0" d="M109.5,306c-18.8,0-34.1,15.4-34.1,34.1s15.4,34.1,34.1,34.1s34.1-15.4,34.1-34.1
				C143.6,321.3,128.3,306,109.5,306z M109.5,357.2c-9.4,0-17.1-7.7-17.1-17.1s7.7-17.1,17.1-17.1s17.1,7.7,17.1,17.1
				C126.5,349.5,118.9,357.2,109.5,357.2z"/>
		</g>
	</g>
</g>
</svg>
