<?xml version="1.0" encoding="utf-8"?>
<!-- Generator: Adobe Illustrator 21.1.0, SVG Export Plug-In . SVG Version: 6.00 Build 0)  -->
<svg version="1.1" id="Capa_1" xmlns="http://www.w3.org/2000/svg" xmlns:xlink="http://www.w3.org/1999/xlink" x="0px" y="0px"
	 viewBox="0 0 473.9 473.9" style="enable-background:new 0 0 473.9 473.9;" xml:space="preserve">
<style type="text/css">
	.st0{fill:#FFFFFF;}
</style>
<g>
	<path class="st0" d="M446,63.7l-1.7-0.3c0.1-1.3,0.2-2.5,0.2-3.8c0-2.4-0.2-4.8-0.5-7.1l1.4-0.3c4.1-0.8,6.7-4.7,5.9-8.8
		c-0.8-4.1-4.7-6.7-8.8-5.9l-2.7,0.5c-1.6-3.5-3.6-6.9-6-10l1.9-1.9c2.9-2.9,2.9-7.7,0-10.6c-2.9-2.9-7.7-2.9-10.6,0l-2,2
		c-2.8-2.1-5.9-3.8-9-5.3l0.5-2.7c0.8-4.1-1.9-8-5.9-8.8c-4.1-0.8-8,1.9-8.8,5.9l-0.3,1.4c-2.3-0.3-4.7-0.5-7.1-0.5
		c-1.3,0-2.5,0.1-3.8,0.2l-0.3-1.7c-0.8-4.1-4.7-6.7-8.8-5.9c-4.1,0.8-6.7,4.7-5.9,8.8l0.4,2c-3.4,1.3-6.7,2.9-9.8,4.9l-0.7-1
		c-2.3-3.5-6.9-4.4-10.4-2.1c-3.5,2.3-4.4,6.9-2.1,10.4l1.7,2.5l-7.3,7.3l-1.6-1.6c-2.9-2.9-7.7-2.9-10.6,0s-2.9,7.7,0,10.6l1.6,1.6
		l-7,7l-1.6-1.6c-2.9-2.9-7.7-2.9-10.6,0c-2.9,2.9-2.9,7.7,0,10.6l1.6,1.6l-7,7l-1.6-1.6c-2.9-2.9-7.7-2.9-10.6,0s-2.9,7.7,0,10.6
		l1.6,1.6l-7,7l-1.6-1.6c-2.9-2.9-7.7-2.9-10.6,0c-2.9,2.9-2.9,7.7,0,10.6l1.6,1.6l-7,7l-1.6-1.6c-2.9-2.9-7.7-2.9-10.6,0
		s-2.9,7.7,0,10.6l1.6,1.6l-7,7l-1.6-1.6c-2.9-2.9-7.7-2.9-10.6,0c-2.9,2.9-2.9,7.7,0,10.6l1.6,1.6l-7,7l-1.6-1.6
		c-2.9-2.9-7.7-2.9-10.6,0c-2.9,2.9-2.9,7.7,0,10.6l1.6,1.6l-7,7l-1.6-1.6c-2.9-2.9-7.7-2.9-10.6,0c-2.9,2.9-2.9,7.7,0,10.6l1.6,1.6
		l-7,7L182,151c-8.2-8.2-19.1-12.7-30.8-12.7s-22.5,4.5-30.8,12.7l-5.2,5.2l-42.8-42.8c-2.9-2.9-7.7-2.9-10.6,0
		c-2.9,2.9-2.9,7.7,0,10.6l42.8,42.8L37.6,234C21.5,250,20.7,275.6,35,292.7L21.9,401.8c-0.9,7.2,2.3,16.4,7.4,21.5l42.5,42.5
		c5.4,5.4,12.4,8,19.4,8s14.1-2.7,19.4-8L273,303.6c15.2-15.2,16.8-38.8,4.8-55.7l7.5-7.5l1.6,1.6c1.5,1.5,3.4,2.2,5.3,2.2
		c1.9,0,3.8-0.7,5.3-2.2c2.9-2.9,2.9-7.7,0-10.6l-1.6-1.6l7-7l1.6,1.6c1.5,1.5,3.4,2.2,5.3,2.2s3.8-0.7,5.3-2.2
		c2.9-2.9,2.9-7.7,0-10.6l-1.6-1.6l7-7l1.6,1.6c1.5,1.5,3.4,2.2,5.3,2.2c1.9,0,3.8-0.7,5.3-2.2c2.9-2.9,2.9-7.7,0-10.6l-1.6-1.6l7-7
		l1.6,1.6c1.5,1.5,3.4,2.2,5.3,2.2s3.8-0.7,5.3-2.2c2.9-2.9,2.9-7.7,0-10.6l-1.6-1.6l7-7l1.6,1.6c1.5,1.5,3.4,2.2,5.3,2.2
		c1.9,0,3.8-0.7,5.3-2.2c2.9-2.9,2.9-7.7,0-10.6l-1.6-1.6l7-7l1.6,1.6c1.5,1.5,3.4,2.2,5.3,2.2s3.8-0.7,5.3-2.2
		c2.9-2.9,2.9-7.7,0-10.6l-1.6-1.6l7-7l1.6,1.6c1.5,1.5,3.4,2.2,5.3,2.2c1.9,0,3.8-0.7,5.3-2.2c2.9-2.9,2.9-7.7,0-10.6l-1.6-1.6l7-7
		l1.6,1.6c1.5,1.5,3.4,2.2,5.3,2.2s3.8-0.7,5.3-2.2c2.9-2.9,2.9-7.7,0-10.6l-1.6-1.6l7.3-7.3l2.6,1.7c1.3,0.8,2.7,1.3,4.1,1.3
		c2.4,0,4.8-1.2,6.3-3.4c2.3-3.5,1.4-8.1-2.1-10.4l-1-0.7c2-3.1,3.6-6.3,4.9-9.8l2,0.4c0.5,0.1,1,0.1,1.4,0.1c3.5,0,6.7-2.5,7.4-6.1
		C452.7,68.4,450.1,64.5,446,63.7z M267.7,236.7l-52.4-52.4l151-151c7-7,16.3-10.8,26.2-10.8s19.2,3.8,26.2,10.8
		c7,7,10.8,16.3,10.8,26.2s-3.8,19.2-10.8,26.2L267.7,236.7z M159.3,396l-84.2-84.2c-2-2-5-2.7-7.8-1.8c-2.7,0.9-4.7,3.3-5,6.2
		l-10,83.6c-0.3,2.3,0.5,4.6,2.1,6.2L86,437.5c1.5,1.5,3.4,2.2,5.3,2.2s3.8-0.7,5.3-2.2l41.5-41.5l10.6,10.6l-48.6,48.6
		c-4.9,4.9-12.8,4.9-17.7,0L40,412.7c-1.9-1.9-3.5-6.5-3.1-9.1l12-100.1c1.9,0,3.7-0.8,5.1-2.2c2.9-2.9,2.9-7.7,0-10.6l-5.8-5.8
		c-11.1-11.1-11.1-29.2,0-40.3l67.2-67.2l102.3,102.3c1.5,1.5,3.4,2.2,5.3,2.2s3.8-0.7,5.3-2.2c2.9-2.9,2.9-7.7,0-10.6L126,166.8
		l5.2-5.2c5.4-5.4,12.5-8.3,20.2-8.3c7.6,0,14.8,3,20.2,8.3l91,91c11.1,11.1,11.1,29.2,0,40.3L159.3,396z M127.5,385.4l-36.2,36.2
		L67.7,398l7.8-64.6L127.5,385.4z"/>
	<path class="st0" d="M141.3,339.8c-2.9-2.9-7.7-2.9-10.6,0c-2.9,2.9-2.9,7.7,0,10.6l21.2,21.2c1.5,1.5,3.4,2.2,5.3,2.2
		c1.9,0,3.8-0.7,5.3-2.2c2.9-2.9,2.9-7.7,0-10.6L141.3,339.8z"/>
	<path class="st0" d="M160.4,320.7c-2.9-2.9-7.7-2.9-10.6,0c-2.9,2.9-2.9,7.7,0,10.6l21.2,21.2c1.5,1.5,3.4,2.2,5.3,2.2
		s3.8-0.7,5.3-2.2c2.9-2.9,2.9-7.7,0-10.6L160.4,320.7z"/>
	<path class="st0" d="M179.5,301.6c-2.9-2.9-7.7-2.9-10.6,0c-2.9,2.9-2.9,7.7,0,10.6l21.2,21.2c1.5,1.5,3.4,2.2,5.3,2.2
		s3.8-0.7,5.3-2.2c2.9-2.9,2.9-7.7,0-10.6L179.5,301.6z"/>
</g>
</svg>
