<?xml version="1.0" encoding="utf-8"?>
<!-- Generator: Adobe Illustrator 21.1.0, SVG Export Plug-In . SVG Version: 6.00 Build 0)  -->
<svg version="1.1" id="Layer_1" xmlns="http://www.w3.org/2000/svg" xmlns:xlink="http://www.w3.org/1999/xlink" x="0px" y="0px"
	 viewBox="0 0 512 512" style="enable-background:new 0 0 512 512;" xml:space="preserve">
<style type="text/css">
	.st0{fill:#FFFFFF;}
</style>
<g transform="translate(1 1)">
	<g>
		<g>
			<path class="st0" d="M229.4,280.6c-5.1,0-8.5,3.4-8.5,8.5v170.7c0,5.1,3.4,8.5,8.5,8.5s8.5-3.4,8.5-8.5V289.1
				C237.9,284,234.5,280.6,229.4,280.6z"/>
			<path class="st0" d="M178.2,280.6c-5.1,0-8.5,3.4-8.5,8.5v170.7c0,5.1,3.4,8.5,8.5,8.5s8.5-3.4,8.5-8.5V289.1
				C186.7,284,183.3,280.6,178.2,280.6z"/>
			<path class="st0" d="M127,280.6c-5.1,0-8.5,3.4-8.5,8.5v170.7c0,5.1,3.4,8.5,8.5,8.5s8.5-3.4,8.5-8.5V289.1
				C135.5,284,132.1,280.6,127,280.6z"/>
			<path class="st0" d="M75.8,280.6c-5.1,0-8.5,3.4-8.5,8.5v170.7c0,5.1,3.4,8.5,8.5,8.5s8.5-3.4,8.5-8.5V289.1
				C84.3,284,80.9,280.6,75.8,280.6z"/>
			<path class="st0" d="M434.2,280.6c-5.1,0-8.5,3.4-8.5,8.5v170.7c0,5.1,3.4,8.5,8.5,8.5s8.5-3.4,8.5-8.5V289.1
				C442.7,284,439.3,280.6,434.2,280.6z"/>
			<path class="st0" d="M383,280.6c-5.1,0-8.5,3.4-8.5,8.5v170.7c0,5.1,3.4,8.5,8.5,8.5s8.5-3.4,8.5-8.5V289.1
				C391.5,284,388.1,280.6,383,280.6z"/>
			<path class="st0" d="M331.8,280.6c-5.1,0-8.5,3.4-8.5,8.5v170.7c0,5.1,3.4,8.5,8.5,8.5s8.5-3.4,8.5-8.5V289.1
				C340.3,284,336.9,280.6,331.8,280.6z"/>
			<path class="st0" d="M280.6,280.6c-5.1,0-8.5,3.4-8.5,8.5v170.7c0,5.1,3.4,8.5,8.5,8.5s8.5-3.4,8.5-8.5V289.1
				C289.1,284,285.7,280.6,280.6,280.6z"/>
			<path class="st0" d="M499.9,286.6c6.8-6.8,11.1-16.2,11.1-26.5v-13.7c0-5.1-3.4-8.5-8.5-8.5h-23l-158.7-63.1
				c-4.3-1.7-9.4,0.9-11.1,5.1s0.9,9.4,5.1,11.1l118,46.9H80.3l146.8-54.4c7.4,12.2,20.9,20.2,36.5,20.2c23.9,0,42.7-18.8,42.7-42.7
				c0-20.5-14.5-37.5-34.1-41.8v-10.2c19.7-3.9,34.1-20.9,34.1-41.8V7.5c0-5.1-3.4-8.5-8.5-8.5s-8.5,3.4-8.5,8.5v25.4
				c-7.1-5.3-15.9-8.3-25.6-8.3s-18.5,3.1-25.6,8.3V7.5c0-5.1-3.4-8.5-8.5-8.5s-8.5,3.4-8.5,8.5v59.7c0,21,14.5,38,34.1,41.8V127
				c0,5.1,3.4,8.5,8.5,8.5c14.5,0,25.6,11.1,25.6,25.6s-11.1,25.6-25.6,25.6c-8.2,0-15.3-3.6-20-9.3l19.8-7.3l5.3,2.1
				c1.7,0.9,2.6,0.9,3.4,0.9c3.4,0,6.8-1.7,7.7-6c1.7-4.3-0.9-9.4-5.1-11.1l-5.9-2.3c-1.5-1-3.3-1.6-5.1-1.6c0,0-0.1,0-0.1,0
				c0,0-0.1,0-0.1,0c-1.7,0-3.4,0.5-4.8,1.4l-20.6,7.6c0-5.1-3.4-8.5-8.5-8.5s-8.5,3.4-8.5,8.5c0,2.1,0.2,4.2,0.4,6.2L30.6,237.9
				h-23c-5.1,0-8.5,3.4-8.5,8.5v13.7c0,10.2,4.3,19.6,11.1,26.5c3.4,3.4,6,9.4,6,14.5v146.8c0,6-2.6,10.2-6,14.5
				C3.3,469.2-1,478.6-1,488.8v13.7c0,5.1,3.4,8.5,8.5,8.5h494.9c5.1,0,8.5-3.4,8.5-8.5v-13.7c0-10.2-4.3-19.6-11.1-26.5
				c-4.3-4.3-6-9.4-6-14.5V301.1C493.9,295.1,496.5,290.8,499.9,286.6z M237.9,67.3c0-14.5,11.1-25.6,25.6-25.6s25.6,11.1,25.6,25.6
				S278,92.9,263.5,92.9C249,92.9,237.9,81.8,237.9,67.3z M488,474.3c4.3,4.3,6,9.4,6,14.5v5.1H16.1v-5.1c0-6,2.6-10.2,6-14.5
				c6.8-6.8,11.1-16.2,11.1-26.5V301.1c0-9.4-4.3-19.6-11.1-26.5c-3.4-4.3-6-9.4-6-14.5V255h477.9v5.1c0,5.1-2.6,10.2-6,14.5
				c-6.8,6.8-11.1,16.2-11.1,26.5v146.8C476.9,458.1,481.1,467.5,488,474.3z"/>
		</g>
	</g>
</g>
</svg>
