<?xml version="1.0" encoding="utf-8"?>
<!-- Generator: Adobe Illustrator 21.1.0, SVG Export Plug-In . SVG Version: 6.00 Build 0)  -->
<svg version="1.1" id="Layer_1" xmlns="http://www.w3.org/2000/svg" xmlns:xlink="http://www.w3.org/1999/xlink" x="0px" y="0px"
	 viewBox="0 0 512 512" style="enable-background:new 0 0 512 512;" xml:space="preserve">
<style type="text/css">
	.st0{fill:#379721;}
</style>
<g transform="translate(1 1)">
	<g>
		<g>
			<path class="st0" d="M375.1,330.1c-10.2-6-22.2-7.7-31.6-5.1c-6.8,1.7-12.8,6-17.1,12.8c-8.5,11.1-19.6,23-22.2,24.7
				c-20.5,13.7-36.7,11.9-53.8-5.1l-89.8-90.6c-0.4-0.6-0.9-1.1-1.5-1.5c0,0-0.1-0.1-0.3-0.3l-5.7-5.7
				c-17.1-17.9-18.8-33.3-5.1-53.8c2.6-2.6,14.5-13.7,24.7-22.2c6-4.3,11.1-10.2,12.8-17.1c2.6-9.4,0-20.5-6-31.6
				c-1.7-2.6-36.7-62.3-69.1-79.4c-16.2-8.5-36.7-5.1-49.5,7.7L39.8,84.3C-2.9,127-12.3,176.5,13.3,231.1
				c8.5,17.9,21.3,35.8,37.5,52.1l174.9,174.9c13.7,13.7,27.3,24.7,41.8,32.4c23.9,13.7,47.8,20.5,70,20.5
				c31.6,0,61.4-13.7,87.9-40.1l21.3-22.2c13.7-12.8,16.2-33.3,7.7-49.5C437.4,366.8,377.7,331.8,375.1,330.1z M434,437.6
				l-21.3,21.3c-40.1,40.1-85.3,46.1-137.4,17.1c-12.8-6.8-25.6-17.1-37.5-29L62.8,271.2c-15.4-15.4-26.5-31.6-34.1-47.8
				c-22.2-47.8-14.5-89.6,23-127.1l21.3-21.3c7.7-7.7,19.6-9.4,28.2-4.3c28.2,14.5,62.3,71.7,62.3,72.5c4.3,6.8,6,13.7,4.3,18.8
				c-0.9,2.6-2.6,5.1-6,6.8l-0.9,0.9c-6.8,6.8-24.7,21.3-28.2,26.5c-5,7.3-8.3,14.6-10.2,21.7c-5.9-11.8-10.6-25.5-12-40.5
				c-0.9-5.1-4.3-8.5-9.4-7.7c-5.1,0.9-8.5,5.1-7.7,9.4c6,59.7,52.9,98.1,54.6,99.8l0,0l90.5,90.5c0.7,0.7,1.3,1.3,2,1.9
				c0.2,0.2,0.4,0.4,0.6,0.7c0.9,1.7,39.3,39.3,98.1,45.2h0.9c4.3,0,7.7-3.4,8.5-7.7c0-5.1-3.4-8.5-7.7-9.4
				c-18-1.8-34.1-7.1-47.5-13.4c6.6-1.9,13.3-5.1,20.2-9.6c6-3.4,20.5-20.5,26.5-28.2V348c1.7-3.4,3.4-5.1,6.8-6
				c5.1-0.9,11.9,0.9,18.8,4.3c0,0,58,34.1,72.5,62.3C443.4,418,441.7,429.9,434,437.6z"/>
			<path class="st0" d="M365.7-1c-80.2,0-145.1,64.9-145.1,145.1c0,23,5.1,46.1,16.2,65.7L220.7,278c-0.9,3.4,0,6.8,2.6,8.5
				c1.7,1.7,3.4,2.6,6,2.6c0.9,0,1.7,0,2.6,0l63.1-18.8c21.3,11.9,46.1,18.8,70.8,18.8c80.2,0,145.1-64.9,145.1-145.1S446-1,365.7-1
				z M365.7,271.2c-23,0-46.1-6-65.7-17.9c-0.9-0.9-2.6-0.9-4.3-0.9c-0.9,0-1.7,0.9-2.6,0.9l-52.9,15.4l13.7-57.2
				c0.9-1.7,0-4.3-0.9-6c-10.2-18.8-15.4-40.1-15.4-61.4c0-70.8,57.2-128,128-128s128,56.3,128,127.1S436.6,271.2,365.7,271.2z"/>
			<path class="st0" d="M306,101.4h119.5c5.1,0,8.5-3.4,8.5-8.5c0-5.1-3.4-8.5-8.5-8.5H306c-5.1,0-8.5,3.4-8.5,8.5
				S300.9,101.4,306,101.4z"/>
			<path class="st0" d="M442.5,135.5H288.9c-5.1,0-8.5,3.4-8.5,8.5c0,5.1,3.4,8.5,8.5,8.5h153.6c5.1,0,8.5-3.4,8.5-8.5
				C451.1,138.9,447.7,135.5,442.5,135.5z"/>
			<path class="st0" d="M425.5,186.7H306c-5.1,0-8.5,3.4-8.5,8.5s3.4,8.5,8.5,8.5h119.5c5.1,0,8.5-3.4,8.5-8.5
				S430.6,186.7,425.5,186.7z"/>
		</g>
	</g>
</g>
</svg>
