<?xml version="1.0" encoding="utf-8"?>
<!-- Generator: Adobe Illustrator 21.1.0, SVG Export Plug-In . SVG Version: 6.00 Build 0)  -->
<svg version="1.1" id="Capa_1" xmlns="http://www.w3.org/2000/svg" xmlns:xlink="http://www.w3.org/1999/xlink" x="0px" y="0px"
	 viewBox="0 0 382.3 413.1" style="enable-background:new 0 0 382.3 413.1;" xml:space="preserve">
<style type="text/css">
	.st0{fill:#FFFFFF;stroke:#FFFFFF;stroke-width:4;stroke-miterlimit:10;}
</style>
<g>
	<g>
		<path class="st0" d="M227.2,48.6c-23.6,0-45.6,8.2-63,22C147.4,27.6,120.7,2,91.6,2C41.4,2,2,74.7,2,167.9
			C2,258,38.9,328.7,86.5,333.8V406c0,3.1,2,5.1,5.1,5.1s5.1-2,5.1-5.1v-72.7c33.8-3.6,63-41,76.3-97.8
			c13.8,8.7,29.7,13.8,46.6,15.4v154.6c0.5,3.1,3.1,5.1,5.6,5.1c3.1,0,5.1-2,5.1-5.1V250.8c54.3-1.5,97.8-46.6,97.8-100.9
			C328.1,94.2,283,48.6,227.2,48.6z M96.7,323V200.7c0-3.1-2-5.1-5.1-5.1s-5.1,2-5.1,5.1V323c-41.5-5.1-74.2-72.7-74.2-155.6
			c0-86,35.3-155.6,79.4-155.6c25.1,0,49.2,24.6,64.5,65.5c-18.9,18.4-30.2,44-30.2,72.2c0,32.3,15.4,60.9,38.4,79.4
			C152.5,283.6,126.4,319.4,96.7,323z M230.8,240.6v-29.2l43.5-43.5c2-2,2-5.1,0-7.2s-5.1-2-7.2,0l-36.9,36.4v-64.5
			c0-3.1-2-5.1-5.1-5.1s-5.1,2-5.1,5.1v64.5l-36.4-36.4c-2-2-5.1-2-7.2,0s-2,5.1,0,7.2l43.5,43.5v28.7c-47.1-3.1-84-42.5-84-90.1
			c0-50.2,41-91.1,91.1-91.1s91.1,41,91.1,91.1C318.4,199.1,279.5,239.1,230.8,240.6z"/>
	</g>
</g>
<g>
	<g>
		<path class="st0" d="M318.4,266.2c-34.3,0-62,27.6-62,62c0,32.3,24.6,58.9,55.8,62v15.4c-0.5,3.1,1.5,5.1,4.6,5.1s5.1-2,5.1-5.1
			v-15.4c32.3-2,58.4-28.7,58.4-62C380.3,293.8,352.7,266.2,318.4,266.2z M322,379.9V366l25.1-25.1c2-2,2-5.1,0-7.2s-5.1-2-7.2,0
			L322,351.6v-33.3c0-3.1-2-5.1-5.1-5.1s-5.1,2-5.1,5.1v33.3l-17.9-17.9c-2-2-5.1-2-7.2,0s-2,5.1,0,7.2l25.1,25.1v13.8
			c-25.6-3.1-45.6-25.1-45.6-51.7c0-28.7,23.6-51.7,51.7-51.7s52.2,23,52.2,51.7C370.1,355.3,349.1,377.8,322,379.9z"/>
	</g>
</g>
</svg>
